<svg width="152" height="138" viewBox="0 0 152 138" fill="none" xmlns="http://www.w3.org/2000/svg">
<path d="M74.3209 6.86761C61.7239 6.86761 49.4098 10.6031 38.9358 17.6016C28.4618 24.6001 20.2983 34.5473 15.4776 46.1854C10.657 57.8235 9.39569 70.6297 11.8532 82.9847C14.3108 95.3396 20.3768 106.688 29.2842 115.596C38.1916 124.503 49.5404 130.569 61.8953 133.027C74.2502 135.484 87.0565 134.223 98.6945 129.402C110.333 124.582 120.28 116.418 127.278 105.944C134.277 95.4701 138.012 83.1561 138.012 70.5591C138.012 53.667 131.302 37.4669 119.358 25.5224C107.413 13.5779 91.2129 6.86761 74.3209 6.86761ZM115.919 49.1826L63.6128 101.449L32.7224 70.5591C31.6666 69.5033 31.0735 68.0714 31.0735 66.5784C31.0735 65.0853 31.6666 63.6534 32.7224 62.5976C33.7781 61.5419 35.2101 60.9488 36.7031 60.9488C38.1962 60.9488 39.6281 61.5419 40.6838 62.5976L63.6924 85.6062L108.038 41.3008C108.56 40.7781 109.181 40.3634 109.864 40.0805C110.547 39.7976 111.279 39.6519 112.018 39.6519C112.758 39.6519 113.49 39.7976 114.173 40.0805C114.856 40.3634 115.476 40.7781 115.999 41.3008C116.522 41.8236 116.936 42.4442 117.219 43.1272C117.502 43.8102 117.648 44.5422 117.648 45.2815C117.648 46.0208 117.502 46.7529 117.219 47.4359C116.936 48.1189 116.522 48.7395 115.999 49.2622L115.919 49.1826Z" fill="white"/>
</svg>
