<svg width="295" height="66" viewBox="0 0 295 66" fill="none" xmlns="http://www.w3.org/2000/svg">
<g filter="url(#filter0_d_229_15)">
<path d="M153.182 49C146.638 48.9591 141.295 46.8893 137.151 42.791C133.05 38.6927 131 33.3032 131 26.6229C131 19.9016 133.05 14.4917 137.151 10.3934C141.295 6.29515 146.763 4.2459 153.555 4.2459C159.106 4.2459 164.014 5.63928 168.28 8.42623L169.523 17.0943H168.964C168.053 13.5696 166.21 10.8647 163.434 8.97951C160.659 7.05322 157.366 6.09016 153.555 6.09016C148.129 6.09016 143.78 7.95498 140.506 11.6844C137.276 15.4139 135.66 20.3525 135.66 26.5C135.66 32.6475 137.256 37.6065 140.444 41.3771C143.675 45.1065 147.922 47.0328 153.182 47.1557C157.822 47.1557 161.694 45.9057 164.801 43.4057C168.156 40.7008 170.187 36.2951 170.89 30.1885H171.387L170.641 39.8402C166.873 45.9468 161.053 49 153.182 49ZM218.968 47.5246H219.465V48.1393H205.485V47.5246H206.044C206.914 47.5246 207.554 47.2581 207.97 46.7254C208.424 46.1516 208.654 45.6189 208.654 45.127C208.654 44.6352 208.57 44.1434 208.405 43.6516L204.428 33.2008H187.652L183.489 43.7131C183.322 44.2049 183.241 44.6967 183.241 45.1885C183.241 45.6394 183.447 46.1516 183.862 46.7254C184.317 47.2581 184.981 47.5246 185.85 47.5246H186.41V48.1393H173.921V47.5246H174.48C175.515 47.5246 176.53 47.1967 177.525 46.541C178.519 45.8853 179.326 44.9221 179.948 43.6516L193.99 10.5779C195.522 7.2582 196.289 5.14748 196.289 4.2459H196.848L213.5 43.6516C214.079 44.9221 214.867 45.8853 215.861 46.541C216.855 47.1967 217.89 47.5246 218.968 47.5246ZM188.398 31.3566H203.683L196.227 11.6229L188.398 31.3566ZM235.241 7.0123H231.264V43.6516C231.264 44.7173 231.637 45.6394 232.383 46.418C233.169 47.1557 234.122 47.5246 235.241 47.5246H235.986L236.049 48.1393H222.441V47.5246H223.249C224.327 47.5246 225.237 47.1557 225.983 46.418C226.769 45.6803 227.185 44.7788 227.226 43.7131V9.59426C227.185 8.52862 226.769 7.62705 225.983 6.88934C225.237 6.11072 224.327 5.72131 223.249 5.72131H222.441V5.10656H239.217C242.986 5.10656 245.949 6.15164 248.103 8.2418C250.256 10.291 251.334 12.9754 251.334 16.2951C251.334 19.5738 250.299 22.4221 248.227 24.8402C246.198 27.2171 243.712 28.4057 240.771 28.4057C241.392 28.6926 242.116 29.2664 242.945 30.1271C243.815 30.9468 244.582 31.8074 245.244 32.709C248.807 37.75 251.126 40.8647 252.203 42.0533C253.281 43.2008 254.046 43.9999 254.502 44.4508C254.959 44.8606 255.456 45.2706 255.994 45.6803C256.531 46.0901 257.071 46.418 257.609 46.6639C258.811 47.2378 260.094 47.5246 261.461 47.5246V48.1393H258.044C256.263 48.1393 254.605 47.832 253.073 47.2172C251.541 46.5615 250.38 45.9057 249.594 45.25C248.848 44.5532 248.186 43.8975 247.605 43.2828C247.068 42.6271 245.534 40.4958 243.008 36.8893C240.481 33.2829 239.01 31.2336 238.596 30.7418C238.183 30.2091 237.748 29.6967 237.291 29.2049C235.965 27.8115 234.641 27.1148 233.315 27.1148V26.5C233.647 26.5409 234.082 26.5615 234.62 26.5615C235.157 26.5615 235.821 26.5409 236.608 26.5C241.744 26.377 244.974 24.246 246.301 20.1066C246.549 19.2868 246.673 18.5288 246.673 17.832C246.673 17.0943 246.673 16.623 246.673 16.418C246.59 13.6722 245.866 11.4591 244.499 9.77869C243.132 8.0983 241.289 7.19672 238.969 7.07377C237.975 7.03285 236.732 7.0123 235.241 7.0123ZM263.419 47.5246C264.494 47.5246 265.407 47.1557 266.152 46.418C266.939 45.6394 267.352 44.7173 267.395 43.6516V9.22541C267.395 8.2418 267.001 7.42207 266.215 6.76639C265.426 6.06961 264.494 5.72131 263.419 5.72131H262.673L262.611 5.10656H280.816C282.099 5.10656 283.488 4.98361 284.979 4.7377C286.511 4.4918 287.589 4.2459 288.21 4V11.7459H287.589V10.6393C287.589 9.65574 287.235 8.81564 286.532 8.11885C285.868 7.42207 285.06 7.05321 284.109 7.0123H271.434V26.0082H281.934C282.761 25.9673 283.466 25.6599 284.047 25.0861C284.625 24.5122 284.917 23.7951 284.917 22.9344V22.0738H285.538V31.7869H284.917V30.8648C284.917 30.045 284.625 29.3484 284.047 28.7746C283.507 28.2008 282.824 27.8934 281.996 27.8525H271.434V46.2336H280.319C283.383 46.2336 285.724 45.5574 287.34 44.2049C288.955 42.8525 290.301 40.8443 291.379 38.1803H292L288.396 48.1393H262.611V47.5246H263.419Z" fill="white"/>
</g>
<g filter="url(#filter1_d_229_15)">
<path d="M13.9753 5.54601C16.6753 4.51534 19.2714 4 21.7636 4C23.8406 4 25.9797 4.70621 28.1813 6.11861C29.3859 6.88213 30.7358 8.37088 32.2312 10.5849C33.2281 12.1117 34.4951 14.8793 36.0319 18.8875L43.6334 38.6994C45.378 43.1275 47.1434 46.6393 48.9295 49.2352C50.7572 51.8691 52.4186 53.8351 53.914 55.1329C55.4094 56.469 56.967 57.4042 58.587 57.9387C60.207 58.4731 61.5363 58.7403 62.5747 58.7403C63.6547 58.7403 64.61 58.6639 65.4408 58.5112L65.5031 59.0838C63.5093 59.6946 61.5569 60 59.6462 60C57.7356 60 55.8247 59.5419 53.914 58.6258C52.0033 57.7477 50.2171 56.5072 48.5556 54.9039C44.9833 51.5828 41.9511 46.5248 39.4588 39.7301L37.0288 33.2025H19.9567L15.6576 43.3947C15.4498 43.8528 15.346 44.3108 15.346 44.7689C15.346 45.227 15.5538 45.7232 15.9691 46.2577C16.4261 46.7539 17.1115 47.002 18.0252 47.002H18.5237V47.5746H6V47.002H6.56076C7.55767 47.002 8.53375 46.7349 9.48919 46.2004C10.4446 45.6278 11.2338 44.7881 11.8568 43.681L27.309 9.66871C25.0659 6.72932 22.2829 5.25971 18.9598 5.25971C17.4645 5.25971 15.8653 5.54601 14.1622 6.11861L13.9753 5.54601ZM20.6421 31.4847H36.4058L31.4835 18.1432C30.5281 15.5856 29.6558 13.5815 28.8666 12.1309L20.6421 31.4847ZM67.4916 9.26789H63.504V43.3947C63.504 44.3872 63.8778 45.2461 64.6255 45.9714C65.4147 46.6585 66.3701 47.002 67.4916 47.002H68.2393L68.3016 47.5746H54.6564V47.002H55.4664C56.5463 47.002 57.4602 46.6585 58.2079 45.9714C58.9971 45.2843 59.4124 44.4445 59.4541 43.4519V11.6728C59.4124 10.6802 58.9971 9.84049 58.2079 9.15337C57.4602 8.42814 56.5463 8.06544 55.4664 8.06544H54.6564V7.49284H71.4793C75.2592 7.49284 78.2291 8.46626 80.3892 10.4131C82.5491 12.3218 83.6291 14.8221 83.6291 17.9141C83.6291 20.968 82.5906 23.6209 80.5138 25.8732C78.4783 28.0872 75.986 29.1943 73.037 29.1943C73.66 29.4614 74.3869 29.9959 75.2177 30.7975C76.09 31.5611 76.8583 32.3627 77.5231 33.2025C81.0952 37.8978 83.4214 40.7989 84.5014 41.9059C85.5813 42.9747 86.3498 43.7191 86.8068 44.1391C87.2636 44.5207 87.762 44.9026 88.3022 45.2842C88.8421 45.6659 89.382 45.9714 89.9221 46.2004C91.1266 46.7349 92.4144 47.002 93.7852 47.002V47.5746H90.3583C88.572 47.5746 86.9106 47.2883 85.3737 46.7157C83.8367 46.105 82.6737 45.4941 81.8846 44.8834C81.1369 44.2344 80.4721 43.6237 79.8907 43.0511C79.3506 42.4404 77.8138 40.4553 75.28 37.0961C72.7461 33.7369 71.2715 31.8282 70.8562 31.3701C70.4407 30.874 70.0046 30.3967 69.5478 29.9386C68.2185 28.6408 66.8892 27.9918 65.5601 27.9918V27.4192C65.8923 27.4573 66.3285 27.4765 66.8686 27.4765C67.4085 27.4765 68.0731 27.4573 68.8624 27.4192C74.013 27.3047 77.253 25.3198 78.5823 21.4642C78.8315 20.7007 78.9561 19.9946 78.9561 19.3456C78.9561 18.6585 78.9561 18.2196 78.9561 18.0286C78.873 15.4711 78.1461 13.4097 76.7754 11.8446C75.4046 10.2794 73.5561 9.43967 71.2301 9.32515C70.2332 9.28704 68.987 9.26789 67.4916 9.26789ZM126.377 12.589C126.377 11.6728 126.023 10.8903 125.318 10.2413C124.611 9.55419 123.78 9.19149 122.825 9.15337H110.987V43.4519C111.028 44.4445 111.423 45.2843 112.171 45.9714C112.96 46.6585 113.894 47.002 114.975 47.002H115.785V47.5746H102.14V47.002H102.95C104.028 47.002 104.943 46.6585 105.689 45.9714C106.48 45.2843 106.894 44.4635 106.937 43.5092V9.15337H95.0979C94.101 9.19149 93.2495 9.55419 92.5433 10.2413C91.8788 10.8903 91.5464 11.6728 91.5464 12.589V13.5624L90.9233 13.6196V6.40491C91.5464 6.63395 92.6264 6.86299 94.1633 7.09203C95.7001 7.32106 97.1125 7.43558 98.4002 7.43558H119.461C121.496 7.43558 123.178 7.30192 124.508 7.03476C125.878 6.72932 126.708 6.51943 127 6.40491V13.6196L126.377 13.5624V12.589Z" fill="white"/>
</g>
<defs>
<filter id="filter0_d_229_15" x="126" y="1" width="169" height="53" filterUnits="userSpaceOnUse" color-interpolation-filters="sRGB">
<feFlood flood-opacity="0" result="BackgroundImageFix"/>
<feColorMatrix in="SourceAlpha" type="matrix" values="0 0 0 0 0 0 0 0 0 0 0 0 0 0 0 0 0 0 127 0" result="hardAlpha"/>
<feOffset dx="-1" dy="1"/>
<feGaussianBlur stdDeviation="2"/>
<feComposite in2="hardAlpha" operator="out"/>
<feColorMatrix type="matrix" values="0 0 0 0 0.960784 0 0 0 0 0.960784 0 0 0 0 0.960784 0 0 0 0.25 0"/>
<feBlend mode="normal" in2="BackgroundImageFix" result="effect1_dropShadow_229_15"/>
<feBlend mode="normal" in="SourceGraphic" in2="effect1_dropShadow_229_15" result="shape"/>
</filter>
<filter id="filter1_d_229_15" x="0" y="0" width="131" height="66" filterUnits="userSpaceOnUse" color-interpolation-filters="sRGB">
<feFlood flood-opacity="0" result="BackgroundImageFix"/>
<feColorMatrix in="SourceAlpha" type="matrix" values="0 0 0 0 0 0 0 0 0 0 0 0 0 0 0 0 0 0 127 0" result="hardAlpha"/>
<feOffset dx="-1" dy="1"/>
<feGaussianBlur stdDeviation="2.5"/>
<feComposite in2="hardAlpha" operator="out"/>
<feColorMatrix type="matrix" values="0 0 0 0 0.960784 0 0 0 0 0.960784 0 0 0 0 0.960784 0 0 0 0.29 0"/>
<feBlend mode="normal" in2="BackgroundImageFix" result="effect1_dropShadow_229_15"/>
<feBlend mode="normal" in="SourceGraphic" in2="effect1_dropShadow_229_15" result="shape"/>
</filter>
</defs>
</svg>
