<svg width="350" height="89" viewBox="0 0 350 89" fill="none" xmlns="http://www.w3.org/2000/svg">
<path d="M76.992 77.48C74.112 77.48 71.536 76.872 69.264 75.656C66.992 74.408 65.2 72.712 63.888 70.568C62.576 68.424 61.92 65.992 61.92 63.272C61.92 60.552 62.576 58.136 63.888 56.024C65.2 53.88 66.992 52.2 69.264 50.984C71.536 49.736 74.112 49.112 76.992 49.112C79.488 49.112 81.664 49.496 83.52 50.264C85.408 51 87.008 52.168 88.32 53.768L84.384 57.512C83.424 56.392 82.336 55.576 81.12 55.064C79.904 54.52 78.592 54.248 77.184 54.248C75.424 54.248 73.84 54.632 72.432 55.4C71.056 56.168 69.968 57.24 69.168 58.616C68.4 59.96 68.016 61.512 68.016 63.272C68.016 65.032 68.4 66.6 69.168 67.976C69.968 69.352 71.056 70.424 72.432 71.192C73.84 71.96 75.424 72.344 77.184 72.344C78.592 72.344 79.904 72.072 81.12 71.528C82.336 70.984 83.424 70.152 84.384 69.032L88.32 72.824C87.008 74.392 85.408 75.56 83.52 76.328C81.632 77.096 79.456 77.48 76.992 77.48ZM93.801 77V49.544H99.849V72.104H113.961V77H93.801ZM130.807 77.48C127.895 77.48 125.287 76.872 122.983 75.656C120.711 74.408 118.919 72.712 117.607 70.568C116.295 68.424 115.639 65.992 115.639 63.272C115.639 60.552 116.295 58.136 117.607 56.024C118.919 53.88 120.711 52.2 122.983 50.984C125.287 49.736 127.879 49.112 130.759 49.112C133.671 49.112 136.263 49.736 138.535 50.984C140.839 52.2 142.647 53.88 143.959 56.024C145.271 58.136 145.927 60.552 145.927 63.272C145.927 65.992 145.271 68.424 143.959 70.568C142.647 72.712 140.839 74.408 138.535 75.656C136.263 76.872 133.687 77.48 130.807 77.48ZM130.759 72.344C132.519 72.344 134.071 71.96 135.415 71.192C136.791 70.392 137.863 69.304 138.631 67.928C139.399 66.552 139.783 65 139.783 63.272C139.783 61.512 139.383 59.96 138.583 58.616C137.815 57.24 136.759 56.168 135.415 55.4C134.071 54.632 132.535 54.248 130.807 54.248C129.079 54.248 127.527 54.632 126.151 55.4C124.775 56.168 123.687 57.24 122.887 58.616C122.119 59.96 121.735 61.512 121.735 63.272C121.735 65 122.119 66.552 122.887 67.928C123.687 69.304 124.775 70.392 126.151 71.192C127.527 71.96 129.063 72.344 130.759 72.344ZM164.213 77.48C161.589 77.48 159.333 77 157.445 76.04C155.589 75.048 154.165 73.64 153.173 71.816C152.181 69.96 151.685 67.768 151.685 65.24V49.544H157.733V65.048C157.733 67.416 158.293 69.224 159.413 70.472C160.533 71.72 162.149 72.344 164.261 72.344C166.341 72.344 167.925 71.736 169.013 70.52C170.133 69.272 170.693 67.448 170.693 65.048V49.544H176.645V65.24C176.645 67.768 176.149 69.96 175.157 71.816C174.197 73.64 172.789 75.048 170.933 76.04C169.077 77 166.837 77.48 164.213 77.48ZM184.739 77V49.544H197.171C200.307 49.544 203.011 50.104 205.283 51.224C207.587 52.344 209.363 53.944 210.611 56.024C211.891 58.072 212.531 60.488 212.531 63.272C212.531 66.088 211.891 68.52 210.611 70.568C209.363 72.616 207.587 74.2 205.283 75.32C203.011 76.44 200.307 77 197.171 77H184.739ZM190.787 72.104H196.979C198.931 72.104 200.611 71.752 202.019 71.048C203.427 70.344 204.515 69.336 205.283 68.024C206.051 66.712 206.435 65.128 206.435 63.272C206.435 61.416 206.051 59.832 205.283 58.52C204.515 57.208 203.427 56.216 202.019 55.544C200.611 54.84 198.931 54.488 196.979 54.488H190.787V72.104ZM218.629 77V49.544H224.677V77H218.629ZM238.3 62.024H252.172V66.872H238.3V62.024ZM239.068 77H233.02V49.544H253.804V54.44H239.068V77ZM266.132 77V65.96L267.284 69.8L254.995 49.544H261.428L271.028 65.192H267.668L277.268 49.544H283.411L271.124 69.8L272.228 65.96V77H266.132Z" fill="#A6CCE6"/>
<path d="M52.5754 59H25.1417C14.0177 58.9834 5 50.6491 5 40.3673C5 30.0896 14.0177 21.7553 25.1417 21.7553C26.8414 14.4384 32.9008 8.46695 41.0362 6.0875C49.1673 3.71221 58.1461 5.28605 64.5817 10.2401C71.0174 15.1817 73.9325 22.727 72.2371 30.0439H76.5188C82.4442 30.0439 87.5737 33.366 90 38.1996" stroke="#A6CCE6" stroke-width="8.33333" stroke-linecap="round" stroke-linejoin="round"/>
</svg>
