<svg width="427" height="314" viewBox="0 0 427 314" fill="none" xmlns="http://www.w3.org/2000/svg">
<path d="M258.177 399.085L178.499 369.818C146.209 357.9 129.278 323.071 140.701 291.973C152.12 260.887 187.57 245.299 219.879 257.167C232.944 236.849 257.178 225.252 283.449 226.734C309.704 228.225 334.033 242.564 347.221 264.414C360.422 286.226 360.506 312.158 347.453 332.48L359.888 337.048C377.098 343.369 388.305 358.89 389.982 376.098" fill="white"/>
<path d="M-42.4629 211.289L-81.9839 136.167C-97.9618 105.681 -87.1861 68.4848 -57.8658 53.0595C-28.5572 37.6405 8.20024 49.8301 24.2255 80.2909C47.5394 73.9681 73.2971 81.6018 91.8023 100.309C110.289 119.011 118.736 145.959 113.88 171.014C109.06 196.05 91.7425 215.352 68.4347 221.687L74.6031 233.411C83.1391 249.637 81.0552 268.667 70.7667 282.562" fill="white"/>
<path d="M-42.4629 211.289L-81.9839 136.167C-97.9618 105.681 -87.1861 68.4848 -57.8658 53.0595C-28.5572 37.6405 8.20024 49.8301 24.2255 80.2909C47.5394 73.9681 73.2971 81.6018 91.8023 100.309C110.289 119.011 118.736 145.959 113.88 171.014C109.06 196.05 91.7425 215.352 68.4347 221.687L74.6031 233.411C83.1391 249.637 81.0552 268.667 70.7667 282.562" stroke="white" stroke-width="8.33333" stroke-linecap="round" stroke-linejoin="round"/>
<path d="M117.204 348H32.3208C-2.09815 347.946 -30 321.092 -30 287.961C-30 254.844 -2.09815 227.989 32.3208 227.989C37.58 204.413 56.3284 185.171 81.5003 177.504C106.659 169.85 134.44 174.922 154.353 190.885C174.266 206.808 183.285 231.12 178.039 254.697H191.288C209.621 254.697 225.493 265.401 233 280.976" fill="white"/>
<path d="M117.204 348H32.3208C-2.09815 347.946 -30 321.092 -30 287.961C-30 254.844 -2.09815 227.989 32.3208 227.989C37.58 204.413 56.3284 185.171 81.5003 177.504C106.659 169.85 134.44 174.922 154.353 190.885C174.266 206.808 183.285 231.12 178.039 254.697H191.288C209.621 254.697 225.493 265.401 233 280.976" stroke="white" stroke-width="8.33333" stroke-linecap="round" stroke-linejoin="round"/>
</svg>
