<svg viewBox="0 0 337 89" fill="none" xmlns="http://www.w3.org/2000/svg">
<path d="M50.8333 59.1828H24.4042C13.6875 59.1662 5 50.8037 5 40.487C5 30.1745 13.6875 21.812 24.4042 21.812C26.0417 14.4703 31.8792 8.47869 39.7167 6.09119C47.55 3.70785 56.2 5.28702 62.4 10.2579C68.6 15.2162 71.4083 22.787 69.775 30.1287H73.9C79.6083 30.1287 84.55 33.462 86.8875 38.312" stroke="white" stroke-width="8.33333" stroke-linecap="round" stroke-linejoin="round"/>
<path d="M74.992 77.48C72.112 77.48 69.536 76.872 67.264 75.656C64.992 74.408 63.2 72.712 61.888 70.568C60.576 68.424 59.92 65.992 59.92 63.272C59.92 60.552 60.576 58.136 61.888 56.024C63.2 53.88 64.992 52.2 67.264 50.984C69.536 49.736 72.112 49.112 74.992 49.112C77.488 49.112 79.664 49.496 81.52 50.264C83.408 51 85.008 52.168 86.32 53.768L82.384 57.512C81.424 56.392 80.336 55.576 79.12 55.064C77.904 54.52 76.592 54.248 75.184 54.248C73.424 54.248 71.84 54.632 70.432 55.4C69.056 56.168 67.968 57.24 67.168 58.616C66.4 59.96 66.016 61.512 66.016 63.272C66.016 65.032 66.4 66.6 67.168 67.976C67.968 69.352 69.056 70.424 70.432 71.192C71.84 71.96 73.424 72.344 75.184 72.344C76.592 72.344 77.904 72.072 79.12 71.528C80.336 70.984 81.424 70.152 82.384 69.032L86.32 72.824C85.008 74.392 83.408 75.56 81.52 76.328C79.632 77.096 77.456 77.48 74.992 77.48ZM91.801 77V49.544H97.849V72.104H111.961V77H91.801ZM128.807 77.48C125.895 77.48 123.287 76.872 120.983 75.656C118.711 74.408 116.919 72.712 115.607 70.568C114.295 68.424 113.639 65.992 113.639 63.272C113.639 60.552 114.295 58.136 115.607 56.024C116.919 53.88 118.711 52.2 120.983 50.984C123.287 49.736 125.879 49.112 128.759 49.112C131.671 49.112 134.263 49.736 136.535 50.984C138.839 52.2 140.647 53.88 141.959 56.024C143.271 58.136 143.927 60.552 143.927 63.272C143.927 65.992 143.271 68.424 141.959 70.568C140.647 72.712 138.839 74.408 136.535 75.656C134.263 76.872 131.687 77.48 128.807 77.48ZM128.759 72.344C130.519 72.344 132.071 71.96 133.415 71.192C134.791 70.392 135.863 69.304 136.631 67.928C137.399 66.552 137.783 65 137.783 63.272C137.783 61.512 137.383 59.96 136.583 58.616C135.815 57.24 134.759 56.168 133.415 55.4C132.071 54.632 130.535 54.248 128.807 54.248C127.079 54.248 125.527 54.632 124.151 55.4C122.775 56.168 121.687 57.24 120.887 58.616C120.119 59.96 119.735 61.512 119.735 63.272C119.735 65 120.119 66.552 120.887 67.928C121.687 69.304 122.775 70.392 124.151 71.192C125.527 71.96 127.063 72.344 128.759 72.344ZM162.213 77.48C159.589 77.48 157.333 77 155.445 76.04C153.589 75.048 152.165 73.64 151.173 71.816C150.181 69.96 149.685 67.768 149.685 65.24V49.544H155.733V65.048C155.733 67.416 156.293 69.224 157.413 70.472C158.533 71.72 160.149 72.344 162.261 72.344C164.341 72.344 165.925 71.736 167.013 70.52C168.133 69.272 168.693 67.448 168.693 65.048V49.544H174.645V65.24C174.645 67.768 174.149 69.96 173.157 71.816C172.197 73.64 170.789 75.048 168.933 76.04C167.077 77 164.837 77.48 162.213 77.48ZM182.739 77V49.544H195.171C198.307 49.544 201.011 50.104 203.283 51.224C205.587 52.344 207.363 53.944 208.611 56.024C209.891 58.072 210.531 60.488 210.531 63.272C210.531 66.088 209.891 68.52 208.611 70.568C207.363 72.616 205.587 74.2 203.283 75.32C201.011 76.44 198.307 77 195.171 77H182.739ZM188.787 72.104H194.979C196.931 72.104 198.611 71.752 200.019 71.048C201.427 70.344 202.515 69.336 203.283 68.024C204.051 66.712 204.435 65.128 204.435 63.272C204.435 61.416 204.051 59.832 203.283 58.52C202.515 57.208 201.427 56.216 200.019 55.544C198.611 54.84 196.931 54.488 194.979 54.488H188.787V72.104ZM216.629 77V49.544H222.677V77H216.629ZM236.3 62.024H250.172V66.872H236.3V62.024ZM237.068 77H231.02V49.544H251.804V54.44H237.068V77ZM264.132 77V65.96L265.284 69.8L252.995 49.544H259.428L269.028 65.192H265.668L275.268 49.544H281.411L269.124 69.8L270.228 65.96V77H264.132Z" fill="white"/>
</svg>
