<svg width="40" height="40" viewBox="0 0 40 40" fill="none" xmlns="http://www.w3.org/2000/svg">
<path d="M20 3.33325C17.8113 3.33325 15.6441 3.76435 13.622 4.60193C11.5999 5.4395 9.76257 6.66716 8.21493 8.21481C5.08932 11.3404 3.33337 15.5796 3.33337 19.9999C3.33337 27.3666 8.11671 33.6166 14.7334 35.8333C15.5667 35.9666 15.8334 35.4499 15.8334 34.9999V32.1833C11.2167 33.1833 10.2334 29.9499 10.2334 29.9499C9.46671 28.0166 8.38337 27.4999 8.38337 27.4999C6.86671 26.4666 8.50004 26.4999 8.50004 26.4999C10.1667 26.6166 11.05 28.2166 11.05 28.2166C12.5 30.7499 14.95 29.9999 15.9 29.5999C16.05 28.5166 16.4834 27.7833 16.95 27.3666C13.25 26.9499 9.36671 25.5166 9.36671 19.1666C9.36671 17.3166 10 15.8333 11.0834 14.6499C10.9167 14.2333 10.3334 12.4999 11.25 10.2499C11.25 10.2499 12.65 9.79992 15.8334 11.9499C17.15 11.5833 18.5834 11.3999 20 11.3999C21.4167 11.3999 22.85 11.5833 24.1667 11.9499C27.35 9.79992 28.75 10.2499 28.75 10.2499C29.6667 12.4999 29.0834 14.2333 28.9167 14.6499C30 15.8333 30.6334 17.3166 30.6334 19.1666C30.6334 25.5333 26.7334 26.9333 23.0167 27.3499C23.6167 27.8666 24.1667 28.8833 24.1667 30.4333V34.9999C24.1667 35.4499 24.4334 35.9832 25.2834 35.8333C31.9 33.5999 36.6667 27.3666 36.6667 19.9999C36.6667 17.8112 36.2356 15.644 35.398 13.6219C34.5605 11.5998 33.3328 9.76245 31.7852 8.21481C30.2375 6.66716 28.4002 5.4395 26.3781 4.60193C24.356 3.76435 22.1887 3.33325 20 3.33325Z" fill="white"/>
</svg>
